<svg version="1" xmlns="http://www.w3.org/2000/svg" width="1333.333" height="1333.333" viewBox="0 0 1000.000000 1000.000000"><path d="M872.8 16.5c-.2.2-2.1.5-4.3.8-22.6 3.2-43.8 24.1-48.8 48.2-1.4 6.7-1.5 19.7-.2 25.9 2.2 10.8 8.3 22 16.2 30.2 12.8 13.1 28.7 19.5 47.1 18.9 33.8-1.1 60-28.2 60-62.2 0-27.7-18.4-52-45.4-59.9-4.9-1.4-23.5-2.9-24.6-1.9zm19.4 13.4c21.5 4.7 38.9 26.9 38.2 49.1-.8 26.5-21.3 47.5-47.4 48.4-49.3 1.9-70.6-60.5-30.7-89.8 10.6-7.8 25.7-10.7 39.9-7.7z"/><path d="M874 42.1c-6.6 1.3-14.4 5.4-19.3 10.4-18.2 18.5-12.6 49.3 11.1 60.3 4.9 2.3 7.1 2.7 15.2 2.7 8.8 0 10.1-.3 16.2-3.3 10.4-5.1 18.9-15.9 20.4-26 .3-2 .7-4.6.9-5.7.1-1.1-.1-4.4-.6-7.3-3.3-20.9-23.1-34.9-43.9-31.1zM804.8 110.3c-2.5 4.5-11.2 19.9-19.3 34.2-8 14.2-15.7 27.7-16.9 30-6.2 11-67 118.4-68.4 120.6-1.5 2.6-1.4 2.8 2.3 6 2.2 1.9 5.5 4.9 7.4 6.6 2 1.8 3.8 3.3 4.1 3.3.6-.1 12.7-11.5 43.7-41.6 13.1-12.8 27-26.2 30.8-29.9 12.4-12 57.5-55.6 72.3-70 7.9-7.7 14.8-14.2 15.3-14.3 2.4-.9.5-2.7-3-3-6.8-.4-18.8-4-26.3-7.8-14.7-7.3-25.6-18.4-33.3-33.9l-4.1-8.3-4.6 8.1zM189.2 214.2c-3.7.4-9 1.9-12.5 3.7-29.9 14.3-32.3 55.3-4.2 73 6.4 4.1 13.4 6.1 21.5 6.1 8.4.1 11.2-.5 18.5-3.9 26.2-12.4 31.7-47.3 10.8-67.7-8.9-8.6-21.3-12.7-34.1-11.2zm16.1 12.8c26.6 10 26.6 46.9.1 57.3-22.3 8.7-46.1-12.9-39.9-36.2 4.6-17.4 23.2-27.3 39.8-21.1z"/><path d="M187.8 233.2c-4.3 1.1-11.2 6.8-13.4 11-6.5 12.5-.6 28.5 12.3 33.4 8.5 3.3 20.5.5 26.5-6.2 5.6-6.3 7.3-17.5 3.8-25.1-5-11.2-16.7-16.4-29.2-13.1zM247 235.5c0 .2.7 3 1.5 6.2 6.9 26.4-9.1 55.8-35.4 64.9-7.2 2.5-10.5 3.2-16.6 3.4-4 .1 2.7 2 70.5 19.6 14 3.7 34.1 8.9 44.5 11.6 10.5 2.7 22.4 5.8 26.5 6.8 7.7 1.9 47 12.1 71 18.4 15.2 4 14.5 4.2 17.7-4.2 1.4-3.8 1.5-4.5.2-5.3-.8-.4-9.3-6.2-18.9-12.8-9.6-6.6-23.8-16.3-31.5-21.5-14.1-9.6-48.8-33.2-67.7-46.1-35.3-24.1-61.1-41.5-61.4-41.5-.2 0-.4.2-.4.5zM578.9 274.4c-.2.2-3.5.6-7.4 1-20.3 1.8-39.6 7.5-59.2 17.7-39.2 20.3-70.4 58.6-81.8 100.2-4.9 18.1-6 26.6-6 45.7.1 21.1 1.9 32.8 8 51.5 16.4 50.1 57 89.8 107.9 105.5 9.6 2.9 16.8 4.5 26.6 5.8 7.4 1 37.1.9 44.5-.1 9.3-1.3 26.2-5.6 34-8.7 1.1-.4 4.5-1.8 7.5-3 11.4-4.6 29.9-15.8 40-24.3 17.8-15 35.3-37.4 43.9-56.2 1.3-2.8 2.9-6.4 3.7-8 4.2-9.3 9.6-30.2 11.1-42.9 1.4-12 .7-41.7-1.2-48.6-.2-.8-.7-2.9-1-4.6-.2-1.7-1.6-7.1-3-12-18.5-64-73.9-110.8-139.5-118-5.1-.6-27.7-1.3-28.1-1zm20.3 46c25.4 2.7 52.1 15.4 70.8 33.7 24.1 23.6 36.7 53.8 36.4 87.4-.1 14.3-1.4 22.2-6.2 37-7.2 22.7-25 47.1-43.2 59.3-3 2-5.7 4-6 4.3-1.6 1.9-19.4 10.3-27.4 12.8-14.9 4.8-26.8 6.4-42 5.8-13.4-.5-15.1-.8-24.6-3.2-46.1-11.9-80-47.6-89.6-94.5-2.5-12.5-2.5-31.4.2-46.9 1-6.2 6.4-21.4 10.2-29.1 6.1-12.1 13-21.8 22.7-31.5 19.8-19.9 46.8-32.8 73.4-35.1 3.6-.3 6.7-.7 6.8-.7.3-.4 12.6.1 18.5.7zM442.5 552.2c-2.8 2.2-6.6 5.2-8.5 6.8-1.9 1.5-17.9 14.3-35.5 28.4-17.6 14.1-32.7 26.2-33.5 26.9-.8.7-20.8 16.7-44.5 35.7-23.6 18.9-43.7 35-44.5 35.7-1.2 1-19.6 15.8-49 39.3-24.8 19.9-37.8 30.3-39 31.3-.8.6-5.8 4.6-11 8.7s-9.7 7.7-10 8c-.3.3-6 4.9-12.8 10.3-6.7 5.4-12.2 10.2-12.2 10.6 0 .5 1.4 1.1 3.1 1.5 1.7.3 5.9 1.8 9.3 3.3 21.8 9.5 41.7 29.1 52.2 51.5l1.7 3.7 2.2-2.2c1.1-1.2 7-8.1 13-15.2 10.3-12.1 14.6-17.2 17-19.9.6-.6 4.4-5.2 8.5-10.1 4.1-5 7.7-9.2 8-9.5.7-.6 54.1-63.3 62.9-73.9 3.5-4.2 8.5-10.1 11.1-13.1 8.8-10.2 26.3-30.8 45.5-53.5 7-8.3 13.9-16.4 15.4-18 2.1-2.4 29.5-34.7 37.6-44.4 1.1-1.3 2.5-2.9 3.2-3.6.6-.6 4.1-4.7 7.8-9.1 3.7-4.3 8.8-10.3 11.4-13.3 6.8-8 6.8-7.5 1.9-13.6-2.4-3-4.8-5.6-5.3-5.8-.6-.3-3.3 1.3-6 3.5zM622 612.8c-4.1.8-7.6 1.6-7.7 1.6-.2.2-.5 2.7-1.8 17.1-.3 2.7-.7 8.1-1 12-.3 3.8-.7 9-1 11.5-.2 2.5-.7 8.1-1 12.5-.3 4.4-.8 10.1-1 12.7-.3 2.7-.7 6.9-1 9.5-.2 2.7-.7 8.2-1 12.3-.4 4.1-.8 9.5-1 12-.2 2.5-.6 7.9-1 12-.3 4.1-.8 9.5-1 12-.2 2.5-.6 7.9-1 12-.3 4.1-.8 9.5-1.1 12-1.7 16.4-2.6 32.2-1.8 31.8 16-7.8 26.9-10.8 40.4-11.3 9.7-.3 21.9 1.4 30.3 4.4l5.7 2-.6-2.7c-.3-1.5-1.3-5.4-2.1-8.7-.8-3.3-1.6-6.7-1.8-7.5-.2-.8-2-7.8-4-15.5s-5.2-20.1-7.1-27.5c-2-7.4-3.7-14.2-3.9-15-.5-2.2-15.4-60.6-17.2-67-.8-3-1.5-6-1.7-6.5-1.6-7.6-7.1-27.5-7.5-27.4-.3.1-4 .9-8.1 1.7zM641.7 796.6c-.1.1-3.1.4-6.7.7-8.6.7-21 4.8-29 9.4-8.7 5.1-21.7 18.1-26.3 26.4-3.8 6.7-7.2 15.6-8.5 21.9-1.3 6.5-.7 28.2 1 33.6 5.1 16.4 13.4 28.7 25.8 38.6 29.3 23.2 72.4 19.7 98.2-8 12.7-13.6 19.1-30.1 19.1-49.2-.1-23.9-9.6-43.6-28.3-58.2-6.3-4.9-19.6-11.8-24-12.3-.3-.1-1.9-.4-3.6-.8-3.1-.8-17.3-2.5-17.7-2.1zm14.3 12.6c5.1 1.3 13.2 4.5 17.9 7.3 24.3 14.3 36.2 44.4 27.9 70.5-1.7 5.3-5.9 14.2-7.4 15.8-.8.7-1.4 1.8-1.4 2.3 0 .5-3.1 4-7 7.8-11.6 11.4-24.5 16.9-41 17.6-37.8 1.5-68.3-32.3-62.8-69.5 3.9-25.6 22.3-45.5 47.8-51.6 4.9-1.2 21.4-1.3 26-.2z"/><path d="M633 820.6c-18.7 3.9-33.6 18.2-38.5 36.9-4.2 16.4.9 34.9 13.2 47.2 24.1 24.1 64.9 17.4 79.7-13 4.5-9.2 5.6-14.2 5.2-24.7-1.1-30.6-29.3-52.6-59.6-46.4zM98 806c-31.5 6.5-57.5 29.9-66.9 60.3-2.9 9.5-3.6 14.7-3.5 26.7 0 12.9.7 17 4.5 28.3 9.8 28.7 33.1 49.8 63.2 57.3 7.7 1.9 26.2 2.5 34.9 1.1 33.7-5.4 62.1-31.7 70.9-65.7 2.3-8.8 3.1-25.6 1.7-35-5.3-34.8-31.5-63.4-66.1-72.2-11.1-2.8-27.4-3.1-38.7-.8zm24 21.4c22.5 2 42.4 16 52.8 37.1 4.6 9.2 6.5 17.6 6.4 29-.1 25.6-13.9 48-36.5 59-11.5 5.6-19.3 7.3-31.7 7-10.5-.3-18.4-2.2-27.5-6.8C45 932.5 36.1 879.1 67.9 847c11.2-11.3 24.8-18.2 39.1-19.7 3-.3 5.6-.7 5.8-.8.2-.2 1.1-.1 2 .1.9.1 4.2.5 7.2.8z"/><path d="M100.5 842.6c-20.2 5.9-34.1 21.1-37.9 41.4-4.8 25 9.5 50.4 33.4 59.3 10.3 3.8 24.3 4.1 34.7.7 20.3-6.8 33.9-23.9 36.2-45.7 2.3-23-11.7-45.5-33.7-54-8.3-3.2-24.5-4.1-32.7-1.7z"/></svg>