<svg id="Layer_1" data-name="Layer 1" xmlns="http://www.w3.org/2000/svg" viewBox="0 0 467.09 261.33"><defs><style>.cls-1{fill:#0f5a91}.cls-2{fill:#777}</style></defs><title>logo</title><path class="cls-1" d="M345.73 160.9A324.65 324.65 0 0 0 391 141.12a303.36 303.36 0 0 1 23.43 36.79c.77-2 1.44-3.85 2.15-5.65.2-.52.5-1 .73-1.54 1-2.25 2-4.51 3.06-6.74s2.21-4.27 3.28-6.41c.51-1 .87-2.07 1.4-3.09 1.14-2.21 2.29-4.43 3.52-6.62 1.56-2.79 3.18-5.56 4.79-8.34 1.14-2 2.27-3.94 3.48-5.88 1.44-2.31 3-4.59 4.44-6.9 1.07-1.68 2-3.41 3.19-5.05 1.8-2.56 3.76-5.06 5.62-7.6 1.49-2 2.91-4.11 4.41-6.14.48-.65 1.2-1.2 1.72-1.83 1.51-1.86 2.9-3.78 4.47-5.61 2.27-2.63 4.67-5.2 7-7.8.77-.86 1.48-1.76 2.31-2.59 1.31-1.3 2.69-2.57 4.06-3.84 2.59-2.4 5.12-4.83 7.8-7.16s5.66-4.84 8.63-7.15c2.34-1.82 4.88-3.48 7.32-5.21 1.42-1 2.79-2.05 4.27-3s3.05-1.76 4.75-2.76c-.09 1.56-.12 3-.28 4.53-.39 3.5-.86 7-1.29 10.49-.26 2.15-.48 4.3-.76 6.44-.23 1.73-.7 3.47-.76 5.19-.13 3.68-.19 7.36-.06 11a30.9 30.9 0 0 0 2.32 10.8c.51 1.24 1 2.48 1.52 3.71.17.4.08.64-.5.88-1.55.63-3.09 1.29-4.6 2a17.39 17.39 0 0 0-2 1.26c-2.18 1.42-4.4 2.82-6.52 4.29s-4.05 2.88-6 4.41-3.75 3.16-5.55 4.79c-2.33 2.1-4.59 4.25-6.88 6.38-1.23 1.14-2.51 2.27-3.67 3.45s-2.38 2.58-3.57 3.87c-1 1-2 2.06-2.93 3.12-1.26 1.4-2.46 2.84-3.71 4.25-.76.86-1.6 1.69-2.33 2.57-1.28 1.53-2.49 3.1-3.76 4.64-1.09 1.32-2.28 2.59-3.33 3.92-1.62 2-3.14 4.14-4.73 6.19-1.18 1.52-2.44 3-3.6 4.52-.54.7-.9 1.46-1.41 2.17-1.44 2-3 4-4.37 6s-2.45 3.83-3.7 5.75c-.72 1.1-1.52 2.18-2.22 3.29s-1.44 2.41-2.14 3.62c-1 1.71-2 3.42-2.94 5.14-1.22 2.22-2.52 4.43-3.55 6.69-1.6 3.52-3 7.07-4.5 10.61-.42 1-.77 2-1.19 3.15-.3-.38-.55-.68-.77-1-2-2.77-4-5.56-6.11-8.32-1.55-2.07-3.07-4.15-4.77-6.13s-3.67-3.85-5.5-5.79c-1.35-1.42-2.65-2.87-4-4.29-.34-.36-.82-.63-1.19-1-1.94-1.76-3.85-3.54-5.79-5.3-1-.88-1.93-1.76-2.93-2.6-.48-.4-1.1-.7-1.6-1.1-2-1.53-3.86-3.1-5.83-4.62-1.71-1.31-3.43-2.62-5.24-3.85s-3.47-2.16-5.24-3.22c-2.07-1.24-4.14-2.48-6.24-3.69-1.82-1-3.67-2.07-5.52-3.09-1.32-.73-2.62-1.47-4-2.15-1.14-.56-2.37-1-3.56-1.55z" transform="translate(-178.46 -61)"/><path class="cls-2" d="M204.35 22.55l.03.02-26.62 26.62V28.18h-26.98v47.99L87.95 139l17.51 17.52L221.89 40.09l28.48 28.47 17.51-17.52-46.01-46.01-17.52 17.52z"/><path class="cls-2" transform="rotate(-45 339.957 363.765)" d="M490.44 137.11h24.77v83.48h-24.77z"/><path class="cls-1" d="M184.61 260.66v47.67h-6.15v-47.67zm11.25 22.7c0-3.54-.07-6.44-.28-9.26h5.52l.35 5.66h.14a12.59 12.59 0 0 1 11.32-6.44c4.74 0 12.09 2.83 12.09 14.57v20.44h-6.22v-19.74c0-5.52-2.05-10.11-7.92-10.11a8.84 8.84 0 0 0-8.35 6.37 9 9 0 0 0-.42 2.9v20.58h-6.22zm38.4 18.64a16.31 16.31 0 0 0 8.2 2.48c4.53 0 6.65-2.26 6.65-5.09s-1.77-4.6-6.37-6.29c-6.15-2.19-9.05-5.59-9.05-9.69 0-5.52 4.46-10 11.81-10a17.08 17.08 0 0 1 8.42 2.12l-1.55 4.47a13.32 13.32 0 0 0-7-2c-3.68 0-5.73 2.12-5.73 4.67 0 2.83 2.05 4.1 6.51 5.8 5.94 2.26 9 5.23 9 10.33 0 6-4.67 10.25-12.8 10.25a19.52 19.52 0 0 1-9.62-2.33zm36.35-37.73v9.83h8.91v4.74h-8.91v18.46c0 4.24 1.2 6.65 4.67 6.65a13.81 13.81 0 0 0 3.61-.42l.28 4.67a15.23 15.23 0 0 1-5.52.85 8.63 8.63 0 0 1-6.72-2.62c-1.77-1.84-2.4-4.88-2.4-8.91v-18.69h-5.3v-4.73h5.3v-8.2zm34.87 44.06L305 304h-.21a12.75 12.75 0 0 1-10.47 5.09c-6.93 0-10.47-4.88-10.47-9.83 0-8.27 7.35-12.8 20.58-12.73v-.71c0-2.83-.78-7.92-7.78-7.92a17.06 17.06 0 0 0-8.91 2.55l-1.41-4.1a21.24 21.24 0 0 1 11.25-3c10.47 0 13 7.14 13 14v12.8a48.2 48.2 0 0 0 .57 8.2zm-.92-17.47c-6.79-.14-14.5 1.06-14.5 7.71 0 4 2.69 5.94 5.87 5.94a8.52 8.52 0 0 0 8.27-5.73 6.5 6.5 0 0 0 .35-2zm16.06-7.5c0-3.54-.07-6.44-.28-9.26h5.52l.35 5.66h.14a12.59 12.59 0 0 1 11.32-6.44c4.74 0 12.09 2.83 12.09 14.57v20.44h-6.22v-19.74c0-5.52-2.05-10.11-7.92-10.11a8.84 8.84 0 0 0-8.35 6.37 9 9 0 0 0-.42 2.9v20.58h-6.22zm46.47-19.09v9.83H376v4.74h-8.91v18.46c0 4.24 1.2 6.65 4.67 6.65a13.81 13.81 0 0 0 3.61-.42l.28 4.67a15.23 15.23 0 0 1-5.52.85 8.63 8.63 0 0 1-6.72-2.62c-1.77-1.84-2.4-4.88-2.4-8.91v-18.69h-5.3v-4.73H361v-8.2z" transform="translate(-178.46 -61)"/><path class="cls-2" d="M416.52 306.77c-2.26 1.13-6.79 2.26-12.59 2.26-13.44 0-23.55-8.49-23.55-24.12 0-14.92 10.11-25 24.9-25 5.94 0 9.69 1.27 11.32 2.12l-1.48 5a22.41 22.41 0 0 0-9.62-2c-11.17 0-18.6 7.14-18.6 19.66 0 11.67 6.72 19.17 18.32 19.17a24.63 24.63 0 0 0 10-2zm37.7-15.84c0 12.66-8.77 18.18-17 18.18-9.27 0-16.41-6.79-16.41-17.61 0-11.46 7.5-18.18 17-18.18 9.77 0 16.41 7.14 16.41 17.61zm-27.16.35c0 7.5 4.31 13.16 10.4 13.16s10.4-5.59 10.4-13.3c0-5.8-2.9-13.15-10.26-13.15s-10.54 6.79-10.54 13.29zm35.02-7.92c0-3.54-.07-6.44-.28-9.26h5.45l.28 5.52h.21a11.8 11.8 0 0 1 10.75-6.29 10.12 10.12 0 0 1 9.69 6.86h.14a14.1 14.1 0 0 1 3.82-4.46 11.68 11.68 0 0 1 7.57-2.41c4.53 0 11.25 3 11.25 14.85v20.16h-6.08v-19.38c0-6.58-2.4-10.54-7.43-10.54a8.06 8.06 0 0 0-7.36 5.66 10.24 10.24 0 0 0-.5 3.11v21.15h-6.09v-20.51c0-5.45-2.4-9.41-7.14-9.41-3.89 0-6.72 3.11-7.71 6.22a8.58 8.58 0 0 0-.5 3v20.65h-6.08zm58.98 1.91c0-4.38-.14-7.92-.28-11.17h5.59l.28 5.87h.14a13.46 13.46 0 0 1 12.21-6.65c8.27 0 14.5 7 14.5 17.4 0 12.31-7.5 18.39-15.56 18.39-4.53 0-8.49-2-10.54-5.37h-.14v18.6h-6.15zm6.15 9.12a14 14 0 0 0 .28 2.55 9.6 9.6 0 0 0 9.34 7.29c6.58 0 10.4-5.38 10.4-13.23 0-6.86-3.61-12.73-10.18-12.73a9.93 9.93 0 0 0-9.41 7.71 10.1 10.1 0 0 0-.42 2.55zm53.05 13.94l-.5-4.31h-.21a12.75 12.75 0 0 1-10.47 5.09c-6.93 0-10.47-4.88-10.47-9.83 0-8.27 7.36-12.8 20.58-12.73v-.71c0-2.83-.78-7.92-7.78-7.92a17.06 17.06 0 0 0-8.91 2.55l-1.41-4.1a21.24 21.24 0 0 1 11.25-3c10.47 0 13 7.14 13 14v12.8a48.15 48.15 0 0 0 .57 8.2zm-.92-17.47c-6.79-.14-14.5 1.06-14.5 7.71 0 4 2.69 5.94 5.87 5.94a8.52 8.52 0 0 0 8.27-5.73 6.48 6.48 0 0 0 .35-2zm16.06-6.08c0-4-.07-7.5-.28-10.68h5.45l.21 6.72h.28c1.56-4.6 5.3-7.5 9.48-7.5a6.78 6.78 0 0 1 1.77.21v5.87a9.4 9.4 0 0 0-2.12-.21c-4.38 0-7.5 3.32-8.35 8a17.5 17.5 0 0 0-.28 2.9v18.25h-6.16zm25.88 7.56c.14 8.42 5.52 11.88 11.74 11.88a22.5 22.5 0 0 0 9.48-1.77l1.06 4.46a27.74 27.74 0 0 1-11.38 2.09c-10.54 0-16.83-6.93-16.83-17.26s6.08-18.46 16.05-18.46c11.17 0 14.14 9.83 14.14 16.13a23.58 23.58 0 0 1-.21 2.9zm18.25-4.46c.07-4-1.63-10.11-8.63-10.11-6.29 0-9.05 5.8-9.55 10.11z" transform="translate(-178.46 -61)"/></svg>