<svg id="Layer_1" data-name="Layer 1" xmlns="http://www.w3.org/2000/svg" viewBox="0 0 800 414"><defs><style>.cls-1{fill:#002e50}.cls-2,.cls-4{opacity:.5}.cls-3,.cls-4{fill:#fff}</style></defs><title>logo_footer</title><path class="cls-1" d="M0 0h800v414H0z"/><g class="cls-2"><path class="cls-3" d="M344.73 160.29A324.33 324.33 0 0 0 390 140.47a304 304 0 0 1 23.43 36.86c.77-2 1.44-3.85 2.15-5.66.2-.52.5-1 .73-1.54 1-2.25 2-4.52 3.06-6.76s2.21-4.28 3.28-6.42c.51-1 .87-2.07 1.4-3.09 1.14-2.22 2.29-4.43 3.52-6.63 1.56-2.8 3.18-5.58 4.79-8.36 1.14-2 2.27-3.94 3.48-5.89 1.44-2.32 3-4.6 4.44-6.91 1.07-1.68 2-3.41 3.19-5.06 1.8-2.56 3.76-5.07 5.62-7.61 1.49-2 2.91-4.12 4.41-6.15.48-.65 1.2-1.2 1.72-1.83 1.51-1.86 2.9-3.79 4.47-5.62 2.27-2.64 4.67-5.21 7-7.81.77-.86 1.48-1.76 2.31-2.59 1.31-1.31 2.69-2.57 4.06-3.84 2.59-2.4 5.12-4.84 7.8-7.18s5.66-4.85 8.63-7.17c2.34-1.82 4.88-3.49 7.32-5.22 1.42-1 2.79-2.06 4.27-3s3.05-1.78 4.76-2.77c-.09 1.56-.12 3.05-.28 4.54-.39 3.5-.86 7-1.29 10.51-.26 2.15-.48 4.3-.76 6.46-.23 1.74-.7 3.48-.76 5.2-.13 3.69-.19 7.37-.06 11a31 31 0 0 0 2.31 10.81c.51 1.24 1 2.48 1.52 3.72.17.4.08.64-.5.88-1.55.63-3.09 1.29-4.6 2a17.39 17.39 0 0 0-2 1.26c-2.18 1.43-4.4 2.82-6.52 4.3s-4.05 2.89-6 4.42-3.75 3.17-5.55 4.8c-2.33 2.11-4.59 4.26-6.88 6.39-1.23 1.15-2.51 2.27-3.67 3.45s-2.38 2.58-3.57 3.87c-1 1-2 2.07-2.93 3.13-1.26 1.41-2.46 2.84-3.71 4.26-.76.87-1.6 1.7-2.33 2.57-1.28 1.54-2.49 3.11-3.76 4.65-1.09 1.32-2.28 2.6-3.33 3.93-1.62 2.05-3.14 4.14-4.73 6.2-1.18 1.52-2.44 3-3.6 4.52-.54.7-.9 1.47-1.41 2.18-1.44 2-3 4-4.37 6.05s-2.45 3.84-3.7 5.76c-.72 1.11-1.52 2.19-2.22 3.3s-1.43 2.42-2.14 3.62c-1 1.71-2 3.42-2.94 5.15-1.22 2.23-2.52 4.44-3.55 6.71-1.6 3.52-3 7.09-4.5 10.63-.42 1-.77 2-1.19 3.15-.3-.38-.55-.68-.77-1-2-2.78-4-5.57-6.11-8.34-1.55-2.07-3.07-4.16-4.77-6.14s-3.67-3.86-5.5-5.8c-1.35-1.42-2.65-2.87-4-4.29-.34-.36-.82-.63-1.19-1-1.94-1.77-3.85-3.54-5.79-5.31-1-.88-1.93-1.76-2.93-2.61-.48-.4-1.1-.71-1.6-1.1-2-1.54-3.86-3.11-5.83-4.63-1.71-1.32-3.43-2.63-5.24-3.86s-3.47-2.17-5.24-3.23c-2.07-1.24-4.14-2.48-6.24-3.69-1.82-1.05-3.67-2.07-5.52-3.09-1.32-.73-2.62-1.47-4-2.15-1.14-.57-2.37-1-3.56-1.56z"/></g><path class="cls-3" d="M381.81 82.78l.03.03-26.63 26.67V88.43h-26.97v48.08l-62.84 62.96 17.52 17.54 116.43-116.65 28.47 28.52 17.52-17.54-46.01-46.1-17.52 17.54zm99.26 57.15l-17.52 17.54 59.03 59.15 17.51-17.55-59.02-59.14z"/><path class="cls-4" d="M181.65 260.24V308h-6.15v-47.76zM192.89 283c0-3.54-.07-6.45-.28-9.28h5.52l.35 5.67h.14a12.58 12.58 0 0 1 11.32-6.45c4.74 0 12.09 2.83 12.09 14.6V308h-6.22v-19.77c0-5.53-2.05-10.13-7.92-10.13a8.85 8.85 0 0 0-8.35 6.38 9 9 0 0 0-.42 2.91V308h-6.22zm38.41 18.62a16.28 16.28 0 0 0 8.2 2.48c4.53 0 6.65-2.27 6.65-5.1s-1.77-4.61-6.37-6.31c-6.15-2.2-9.05-5.6-9.05-9.71 0-5.53 4.46-10.06 11.81-10.06A17.06 17.06 0 0 1 251 275l-1.56 4.54a13.31 13.31 0 0 0-7-2c-3.68 0-5.73 2.13-5.73 4.68 0 2.83 2.05 4.11 6.51 5.81 5.94 2.27 9 5.24 9 10.35 0 6-4.67 10.28-12.8 10.28a19.49 19.49 0 0 1-9.62-2.34zm36.35-37.77v9.85h8.91v4.75h-8.91v18.5c0 4.25 1.2 6.66 4.67 6.66a13.86 13.86 0 0 0 3.61-.42l.28 4.68a15.21 15.21 0 0 1-5.52.85 8.62 8.62 0 0 1-6.72-2.62c-1.77-1.84-2.4-4.89-2.4-8.93v-18.72h-5.3v-4.75h5.3v-8.22zM302.52 308l-.5-4.32h-.21a12.74 12.74 0 0 1-10.47 5.1c-6.93 0-10.47-4.89-10.47-9.85 0-8.29 7.35-12.83 20.58-12.75v-.71c0-2.83-.78-7.94-7.78-7.94a17 17 0 0 0-8.91 2.55l-1.41-4.08a21.21 21.21 0 0 1 11.25-3c10.47 0 13 7.16 13 14v12.83a48.39 48.39 0 0 0 .57 8.22zm-.92-17.5c-6.79-.14-14.5 1.06-14.5 7.72 0 4 2.69 6 5.87 6a8.52 8.52 0 0 0 8.27-5.74 6.53 6.53 0 0 0 .35-2zm16.05-7.5c0-3.54-.07-6.45-.28-9.28h5.52l.35 5.67h.14a12.58 12.58 0 0 1 11.32-6.45c4.74 0 12.09 2.83 12.09 14.6V308h-6.22v-19.77c0-5.53-2.05-10.13-7.92-10.13a8.85 8.85 0 0 0-8.35 6.38 9 9 0 0 0-.42 2.91V308h-6.22zm46.47-19.15v9.85H373v4.75h-8.91v18.5c0 4.25 1.2 6.66 4.67 6.66a13.86 13.86 0 0 0 3.61-.42l.28 4.68a15.21 15.21 0 0 1-5.52.85 8.62 8.62 0 0 1-6.72-2.62c-1.77-1.84-2.4-4.89-2.4-8.93v-18.72h-5.3v-4.75H358v-8.22z"/><path class="cls-3" d="M413.56 306.44c-2.26 1.13-6.79 2.27-12.59 2.27-13.44 0-23.55-8.5-23.55-24.16 0-15 10.11-25.09 24.9-25.09 5.94 0 9.69 1.28 11.32 2.13l-1.48 5a22.38 22.38 0 0 0-9.62-2c-11.17 0-18.6 7.16-18.6 19.7 0 11.69 6.72 19.2 18.32 19.2a24.6 24.6 0 0 0 10-2zm37.7-15.87c0 12.68-8.77 18.21-17 18.21-9.27 0-16.41-6.8-16.41-17.64 0-11.48 7.5-18.21 17-18.21 9.76-.01 16.41 7.15 16.41 17.64zm-27.16.35c0 7.51 4.31 13.18 10.4 13.18s10.4-5.6 10.4-13.32c0-5.81-2.9-13.18-10.26-13.18s-10.54 6.8-10.54 13.32zm35.01-7.92c0-3.54-.07-6.45-.28-9.28h5.45l.28 5.53h.21a11.79 11.79 0 0 1 10.75-6.31 10.12 10.12 0 0 1 9.69 6.87h.14a14.13 14.13 0 0 1 3.82-4.46 11.66 11.66 0 0 1 7.57-2.41c4.53 0 11.25 3 11.25 14.88V308h-6.09v-19.42c0-6.59-2.4-10.56-7.43-10.56a8.06 8.06 0 0 0-7.36 5.67 10.28 10.28 0 0 0-.5 3.12V308h-6.08v-20.55c0-5.46-2.41-9.42-7.14-9.42-3.89 0-6.72 3.12-7.71 6.24a8.61 8.61 0 0 0-.5 3V308h-6.08zm58.99 1.9c0-4.39-.14-7.94-.28-11.2h5.59l.28 5.88h.14a13.45 13.45 0 0 1 12.17-6.66c8.27 0 14.5 7 14.5 17.43 0 12.33-7.5 18.42-15.56 18.42-4.53 0-8.49-2-10.54-5.39h-.14V322h-6.16zm6.15 9.14a14.05 14.05 0 0 0 .28 2.55 9.61 9.61 0 0 0 9.34 7.3c6.58 0 10.4-5.38 10.4-13.25 0-6.87-3.61-12.75-10.18-12.75a9.94 9.94 0 0 0-9.41 7.72 10.15 10.15 0 0 0-.42 2.55zM577.3 308l-.5-4.32h-.21a12.74 12.74 0 0 1-10.47 5.1c-6.93 0-10.47-4.89-10.47-9.85 0-8.29 7.36-12.83 20.58-12.75v-.71c0-2.83-.78-7.94-7.78-7.94a17 17 0 0 0-8.91 2.55l-1.41-4.08a21.21 21.21 0 0 1 11.25-3c10.47 0 13 7.16 13 14v12.83A48.34 48.34 0 0 0 583 308zm-.92-17.5c-6.79-.14-14.5 1.06-14.5 7.72 0 4 2.69 6 5.87 6a8.52 8.52 0 0 0 8.27-5.74 6.5 6.5 0 0 0 .35-2zm16.05-6.1c0-4-.07-7.51-.28-10.7h5.45l.21 6.73h.28c1.56-4.61 5.3-7.51 9.48-7.51a6.73 6.73 0 0 1 1.77.21V279a9.34 9.34 0 0 0-2.12-.21c-4.38 0-7.5 3.33-8.35 8a17.57 17.57 0 0 0-.28 2.91V308h-6.15zm25.89 7.6c.14 8.43 5.52 11.9 11.74 11.9a22.47 22.47 0 0 0 9.48-1.77l1.06 4.46a27.67 27.67 0 0 1-11.39 2.13c-10.54 0-16.83-6.95-16.83-17.29s6.08-18.49 16.05-18.49c11.17 0 14.14 9.85 14.14 16.16a23.66 23.66 0 0 1-.21 2.91zm18.25-4.46c.07-4-1.63-10.13-8.63-10.13-6.29 0-9.05 5.81-9.55 10.13z"/></svg>